<svg xmlns="http://www.w3.org/2000/svg" width="194.05" height="77.65"><path d="M.12 0h11.9l4.35 15.65q.25.85.58 2.22t.67 2.68q.4 1.55.8 3.25h.1q.35-1.7.75-3.25.3-1.3.65-2.67t.6-2.22L24.92 0h12v35.75h-8.1V13.66q0-1.4.1-3.05h-.1q-.4 1.55-.7 2.85t-.53 2.22q-.28 1.08-.42 1.58l-5.1 18.49h-7.3L9.67 17.3q-.15-.5-.45-1.6t-.55-2.25q-.3-1.3-.65-2.85h-.1v3.05q0 1.2.08 2.4a9.26 9.26 0 0 1 0 1.75v18H0V0h.12zm40 0h8.85v35.75h-8.85V0zm22.1 7.45h-10.4V0h29.75v7.45h-10.5v28.3h-8.85V7.45zM.12 41h8.85v28.25h16.67v7.5H.12V41zm28.7 0h8.15v6.6h-8.15V41zm0 10.15h8.15v25.6h-8.15v-25.6zm27 26.4a9.84 9.84 0 0 1-4.55-1 7.87 7.87 0 0 1-3.2-3h-.1v3.2h-7.8V41h8.15v13h.15a9.45 9.45 0 0 1 2.9-2.55 8.63 8.63 0 0 1 4.37-1 9.89 9.89 0 0 1 4.53 1 10.16 10.16 0 0 1 3.45 2.85 13.44 13.44 0 0 1 2.2 4.3 17.91 17.91 0 0 1 .78 5.4 19.49 19.49 0 0 1-.78 5.72 12.5 12.5 0 0 1-2.2 4.28 9.47 9.47 0 0 1-3.45 2.67 10.66 10.66 0 0 1-4.45.88zm-2.3-6.45a4.14 4.14 0 0 0 3.67-1.92 9.45 9.45 0 0 0 1.28-5.27 9.74 9.74 0 0 0-1.28-5.3 4.19 4.19 0 0 0-3.77-2 4.44 4.44 0 0 0-4 2.1 9.66 9.66 0 0 0-1.3 5.29 8.53 8.53 0 0 0 1.45 5.17 4.69 4.69 0 0 0 4 2zm15.11-20h7.8v4h.15a9.63 9.63 0 0 1 3-3.35 7.29 7.29 0 0 1 4-1 4.41 4.41 0 0 1 1.6.2v7h-.2a7.36 7.36 0 0 0-6 1.27q-2.16 1.78-2.16 6v11.5h-8.19V51.15zm26 26.3a12 12 0 0 1-3.53-.5 7.54 7.54 0 0 1-2.77-1.5 7 7 0 0 1-1.85-2.4 8.11 8.11 0 0 1-.66-3.4 7.29 7.29 0 0 1 .78-3.52 6.67 6.67 0 0 1 2.12-2.35 10.55 10.55 0 0 1 3.1-1.43 25.72 25.72 0 0 1 3.77-.75 24.65 24.65 0 0 0 5-1 1.92 1.92 0 0 0 1.45-1.85 2.57 2.57 0 0 0-.83-2 3.92 3.92 0 0 0-2.67-.7 4.45 4.45 0 0 0-3 .85 3.67 3.67 0 0 0-1.2 2.45h-7.5a8.46 8.46 0 0 1 .8-3.4 8.17 8.17 0 0 1 2.17-2.8 10.56 10.56 0 0 1 3.58-1.9 16.34 16.34 0 0 1 5-.7 19.62 19.62 0 0 1 4.9.52 9.73 9.73 0 0 1 3.4 1.58 7.29 7.29 0 0 1 2.45 3 10.63 10.63 0 0 1 .8 4.25v12.9a13 13 0 0 0 .17 2.42 1.78 1.78 0 0 0 .73 1.23v.35h-7.9a3.37 3.37 0 0 1-.5-1.12 14.64 14.64 0 0 1-.35-1.72h-.1a8.47 8.47 0 0 1-2.73 2.54 9.92 9.92 0 0 1-4.68 1zm2.6-5.2a5.45 5.45 0 0 0 3.68-1.2 4.23 4.23 0 0 0 1.42-3.35v-3a11.85 11.85 0 0 1-1.87.73q-1.08.33-2.34.62a10.45 10.45 0 0 0-3.4 1.27 2.47 2.47 0 0 0-1.05 2.17 2.42 2.42 0 0 0 1 2.2 4.5 4.5 0 0 0 2.5.55v.05zm15.87-21h7.77v4h.15a9.63 9.63 0 0 1 3-3.35 7.29 7.29 0 0 1 4-1 4.41 4.41 0 0 1 1.6.2v7h-.2a7.36 7.36 0 0 0-6 1.27q-2.23 1.83-2.23 6v11.43h-8.15v-25.6zm18.89-10.1h8.13v6.6h-8.15v-6.6zm0 10.15h8.13v25.5h-8.15v-25.5zm24 26.35a15.16 15.16 0 0 1-5.7-1 12.12 12.12 0 0 1-4.3-2.85 12.66 12.66 0 0 1-2.7-4.33 15.06 15.06 0 0 1-1-5.4 14.72 14.72 0 0 1 1-5.33 12.71 12.71 0 0 1 2.7-4.3 12.46 12.46 0 0 1 4.13-2.94 14.58 14.58 0 0 1 10.28-.17 12.28 12.28 0 0 1 3.83 2.35 12.76 12.76 0 0 1 3.42 5.37 20.72 20.72 0 0 1 1.08 7.13h-18.41a7.52 7.52 0 0 0 1.8 4.1 5.14 5.14 0 0 0 4 1.5 4.81 4.81 0 0 0 2.65-.68 4.3 4.3 0 0 0 1.6-1.87h8a9.47 9.47 0 0 1-1.5 3.33 10.65 10.65 0 0 1-2.8 2.73 12.12 12.12 0 0 1-3.58 1.76 15.22 15.22 0 0 1-4.52.5zm4.5-16.3a6 6 0 0 0-1.55-3.65 4.39 4.39 0 0 0-3.3-1.35 4.66 4.66 0 0 0-3.6 1.35 7 7 0 0 0-1.65 3.65h10.1zm21.9 16.35q-5.65 0-8.95-2.42a8.35 8.35 0 0 1-3.52-6.78h7.7a4.15 4.15 0 0 0 1.45 2.85 5.09 5.09 0 0 0 3.25 1 5.63 5.63 0 0 0 2.92-.65 2.09 2.09 0 0 0 1.08-1.9 1.82 1.82 0 0 0-.55-1.37 4.08 4.08 0 0 0-1.45-.85 10.92 10.92 0 0 0-2.08-.5q-1.17-.17-2.42-.42-1.65-.3-3.3-.72a10.14 10.14 0 0 1-3-1.28 6.33 6.33 0 0 1-2.12-2.27 7.45 7.45 0 0 1-.8-3.68 7.1 7.1 0 0 1 .87-3.55 7.64 7.64 0 0 1 2.35-2.66 11.18 11.18 0 0 1 3.53-1.55 17 17 0 0 1 4.28-.52q5.45 0 8.35 2.2a8 8 0 0 1 3.2 6h-7.5a3 3 0 0 0-1.33-2.37 5.48 5.48 0 0 0-2.78-.62 5.1 5.1 0 0 0-2.52.58 1.9 1.9 0 0 0-1 1.78 1.33 1.33 0 0 0 .5 1.1 4.21 4.21 0 0 0 1.35.67 14.86 14.86 0 0 0 2 .48l2.33.4q1.7.3 3.42.73a10.59 10.59 0 0 1 3.17 1.32 7.05 7.05 0 0 1 2.3 2.42 7.75 7.75 0 0 1 .9 4 7.35 7.35 0 0 1-3.32 6.38 11.75 11.75 0 0 1-3.7 1.6 18.75 18.75 0 0 1-4.66.5z" fill="#fff"/></svg>